HIERARCHY
ROOT Hips
{
	OFFSET 0.000000 0.000000 0.000000 
	CHANNELS 6 Xposition Yposition Zposition Zrotation Yrotation Xrotation
	JOINT LeftUpLeg
	{
		OFFSET 1.363060 -1.794630 0.839290 
		CHANNELS 3 Zrotation Yrotation Xrotation
		JOINT LeftLeg
		{
			OFFSET 2.448110 -6.726130 0.000000 
			CHANNELS 3 Zrotation Yrotation Xrotation
			JOINT LeftFoot
			{
				OFFSET 2.562200 -7.039590 0.000000 
				CHANNELS 3 Zrotation Yrotation Xrotation
				JOINT LeftToeBase
				{
					OFFSET 0.157640 -0.433110 2.322550 
					CHANNELS 3 Zrotation Yrotation Xrotation
					End Site
					{
						OFFSET 0.000000 0.000000 0.000000 
					}
				}
			}
		}
	}
	JOINT RightUpLeg
	{
		OFFSET -1.305520 -1.794630 0.839290 
		CHANNELS 3 Zrotation Yrotation Xrotation
		JOINT RightLeg
		{
			OFFSET -2.542530 -6.985550 0.000000 
			CHANNELS 3 Zrotation Yrotation Xrotation
			JOINT RightFoot
			{
				OFFSET -2.568260 -7.056230 0.000000 
				CHANNELS 3 Zrotation Yrotation Xrotation
				JOINT RightToeBase
				{
					OFFSET -0.164730 -0.452590 2.363150 
					CHANNELS 3 Zrotation Yrotation Xrotation
					End Site
					{
						OFFSET 0.000000 0.000000 0.000000 
					}
				}
			}
		}
	}
	JOINT Spine
	{
		OFFSET 0.028270 2.035590 -0.193380 
		CHANNELS 3 Zrotation Yrotation Xrotation
		JOINT Spine1
		{
			OFFSET 0.056720 2.048850 -0.042750 
			CHANNELS 3 Zrotation Yrotation Xrotation
			JOINT Neck1
			{
				OFFSET -0.054170 1.746240 0.172020 
				CHANNELS 3 Zrotation Yrotation Xrotation
				JOINT Head
				{
					OFFSET 0.104070 1.761360 -0.123970 
					CHANNELS 3 Zrotation Yrotation Xrotation
					End Site
					{
						OFFSET 0.000000 0.000000 0.000000 
					}
				}
			}
			JOINT LeftArm
			{
				OFFSET 3.362410 1.200890 -0.311210 
				CHANNELS 3 Zrotation Yrotation Xrotation
				JOINT LeftForeArm
				{
					OFFSET 4.983000 -0.000000 -0.000000 
					CHANNELS 3 Zrotation Yrotation Xrotation
					JOINT LeftHand
					{
						OFFSET 3.483560 -0.000000 -0.000000 
						CHANNELS 3 Zrotation Yrotation Xrotation
						JOINT LeftHandIndex1
						{
							OFFSET 0.715260 -0.000000 -0.000000 
							CHANNELS 3 Zrotation Yrotation Xrotation
							End Site
							{
								OFFSET 0.000000 0.000000 0.000000 
							}
						}
					}
				}
			}
			JOINT RightArm
			{
				OFFSET -3.136600 1.374050 -0.404650 
				CHANNELS 3 Zrotation Yrotation Xrotation
				JOINT RightForeArm
				{
					OFFSET -5.241900 -0.000000 -0.000000 
					CHANNELS 3 Zrotation Yrotation Xrotation
					JOINT RightHand
					{
						OFFSET -3.444170 -0.000000 -0.000000 
						CHANNELS 3 Zrotation Yrotation Xrotation
						JOINT RightHandIndex1
						{
							OFFSET -0.622530 -0.000000 -0.000000 
							CHANNELS 3 Zrotation Yrotation Xrotation
							End Site
							{
								OFFSET 0.000000 0.000000 0.000000 
							}
						}
					}
				}
			}
		}
	}
}
MOTION
Frames: 16
Frame Time: 0.041667
23.488635 10.547286 1.314952 131.714890 89.391456 167.317479 1.089933 -68.069560 -135.004630 17.528970 1.280286 117.438991 -5.044253 -25.577904 -57.363508 5.518200 13.944700 43.016200 55.188934 74.725194 -49.723755 -15.118938 -13.288514 91.474365 -6.714531 9.019734 -80.044175 -0.082300 1.850400 -5.092500 -2.550238 4.697232 106.329377 -6.626327 1.745943 -47.688804 9.525400 -9.342783 28.286189 0.623700 -3.247700 6.449500 -83.538578 -15.738273 -38.028684 -112.424200 -78.623649 165.346601 4.846588 24.031265 -8.287921 -7.125000 0.000000 0.000000 109.312145 45.907628 -8.480695 -23.181732 74.122310 2.839919 -10.211384 9.507691 -0.796013 7.125000 0.000000 0.000000 
23.491939 10.552931 1.318531 130.876779 88.989456 166.258513 -0.594018 -68.688772 -133.300208 17.449112 1.455357 117.160861 -5.203765 -26.092834 -57.346092 5.506700 13.932600 42.968100 55.442072 74.810564 -49.248958 -15.201884 -13.222692 91.297682 -6.768340 8.481449 -80.176314 -0.080500 1.829800 -5.035600 -2.084058 4.173766 106.355043 -6.570991 1.521200 -47.660326 11.139921 -10.040403 29.205630 0.710000 -3.370000 6.541400 -84.000579 -14.939188 -39.057205 -112.529310 -79.571522 166.034210 4.761203 24.187869 -9.239338 -7.125000 0.000000 0.000000 109.620309 46.543462 -7.634943 -22.243608 74.187425 3.080901 -10.371841 9.582122 -0.608315 7.125000 0.000000 0.000000 
23.488497 10.551347 1.325690 130.728011 88.506854 166.114597 -1.513211 -69.097490 -132.479862 17.429341 1.580242 116.938420 -5.399491 -26.482120 -57.127186 5.643500 14.073800 43.533700 55.332613 75.015775 -49.218008 -15.441896 -13.129236 91.049921 -6.926318 7.340061 -80.319118 -0.094100 1.978600 -5.446500 -1.171522 3.322329 106.399943 -6.544012 1.246906 -47.624131 11.695587 -10.564095 30.616006 0.726500 -3.494400 6.677400 -84.558514 -14.216132 -39.825275 -112.508577 -80.546438 166.578254 4.647631 24.301889 -9.934090 -7.125000 0.000000 0.000000 109.784599 47.085415 -6.765105 -21.572865 74.395114 3.132940 -10.506908 9.556402 -0.763833 7.125000 0.000000 0.000000 
23.480099 10.546873 1.335534 132.121843 87.772047 167.630567 -1.768135 -69.473396 -132.298512 17.430735 1.601876 116.747677 -5.605309 -26.763704 -56.788051 5.991100 14.419700 44.946100 55.119871 75.238550 -49.443364 -15.623481 -13.040378 90.760717 -7.053116 6.504238 -80.372203 -0.108700 2.125400 -5.852500 0.508141 1.816021 106.536472 -6.766446 0.711356 -47.395190 11.797472 -10.850018 31.142555 0.736400 -3.603700 6.741400 -85.132915 -13.466155 -40.414175 -112.289893 -81.621635 167.036833 4.499923 24.399339 -10.437362 -7.125000 0.000000 0.000000 109.900938 47.536456 -5.810967 -21.335872 74.858038 2.899744 -10.505550 9.444763 -1.145640 7.125000 0.000000 0.000000 
23.484573 10.554583 1.334984 134.541772 86.943439 169.425198 -3.317206 -70.029248 -130.351493 17.425433 1.761900 116.568790 -5.513568 -26.783781 -56.957063 5.893300 14.324100 44.551900 57.464904 74.778182 -47.255889 -15.534479 -13.221116 90.353103 -7.019476 6.584025 -80.601544 -0.120600 2.238800 -6.166100 2.635184 0.011768 106.642948 -7.216067 -0.064686 -47.210283 10.571696 -10.754386 31.047390 0.658600 -3.718200 6.746100 -85.711973 -12.706470 -40.767917 -112.019470 -82.817137 167.437475 4.459503 24.449512 -10.723466 -7.125000 0.000000 0.000000 109.913903 48.018281 -4.665278 -21.314929 75.345230 2.621392 -10.555843 9.270694 -2.084401 7.125000 0.000000 0.000000 
23.487671 10.564840 1.337049 136.136186 86.163447 170.604244 -4.834628 -70.559310 -128.574654 17.385663 1.975693 116.302352 -5.319958 -26.805957 -57.316533 5.664100 14.094800 43.618400 58.998287 74.424809 -45.817324 -15.508714 -13.266850 90.055636 -6.979036 6.481725 -80.729577 -0.151600 2.509100 -6.914900 4.667453 -1.674843 106.627749 -7.626571 -0.755621 -46.929598 9.742164 -10.789508 31.432438 0.606300 -3.828400 6.800500 -86.263640 -12.000132 -41.082484 -111.805669 -84.041520 167.828067 4.426453 24.488511 -10.759383 -7.125000 0.000000 0.000000 109.838431 48.515788 -3.172665 -21.394148 75.785673 2.309630 -10.691186 9.007174 -3.629531 7.125000 0.000000 0.000000 
23.486914 10.574202 1.346204 136.243742 85.563329 170.687398 -6.089575 -71.018253 -127.292019 17.463779 2.156903 115.958730 -5.504739 -26.948112 -56.868393 6.288700 14.702400 46.129500 58.831373 74.466189 -45.911902 -15.513250 -13.120173 89.912035 -6.892246 6.404667 -80.636563 -0.121800 2.250000 -6.197000 6.184901 -2.868206 106.505737 -8.020126 -1.229066 -46.617610 10.996274 -11.389461 32.301339 0.686200 -3.939200 6.890300 -86.738006 -11.369669 -41.308238 -111.671426 -85.265234 168.215097 4.344442 24.556906 -10.672342 -7.125000 0.000000 0.000000 109.743258 48.981743 -1.413516 -21.751110 76.303812 1.841635 -10.800883 8.654032 -5.733845 7.125000 0.000000 0.000000 
23.483059 10.577300 1.355360 136.315470 84.913013 170.933737 -7.023896 -71.506114 -126.437501 17.391987 2.308151 115.607870 -5.602879 -27.370906 -56.828607 6.349700 14.758900 46.369800 57.966952 74.638107 -46.679983 -15.541151 -12.910266 89.848239 -6.801827 6.274457 -80.466727 -0.128300 2.308800 -6.360000 8.076823 -4.335346 106.229184 -8.600543 -1.785242 -46.233440 13.137928 -12.271719 33.319949 0.835100 -4.064200 6.989800 -87.224928 -10.832553 -41.335195 -111.620310 -86.514745 168.557873 4.458169 24.572926 -10.357797 -7.125000 0.000000 0.000000 109.641676 49.444412 0.259917 -22.344511 76.898573 1.329071 -10.832920 8.304824 -7.717555 7.125000 0.000000 0.000000 
23.482026 10.580741 1.361073 137.061063 84.287257 171.720854 -7.719113 -71.884255 -125.733358 17.352565 2.424801 115.325999 -5.674274 -27.634502 -56.756145 6.371000 14.778500 46.453200 58.004020 74.610050 -46.660557 -15.589839 -12.813918 89.697417 -6.794224 5.940310 -80.497544 -0.159300 2.571500 -7.087900 10.199339 -5.961005 105.805384 -9.361784 -2.449804 -45.835015 15.261860 -13.142537 34.389990 0.998600 -4.169300 7.110400 -87.640203 -10.182116 -41.436881 -111.543101 -87.778227 168.866635 4.735828 24.564529 -10.043724 -7.125000 0.000000 0.000000 109.593652 49.862290 1.861857 -22.858259 77.472147 0.835150 -10.843381 7.997948 -9.104657 7.125000 0.000000 0.000000 
23.482852 10.588383 1.366167 138.000659 83.750028 172.532473 -8.515269 -72.171288 -124.842328 17.327874 2.564927 115.073910 -5.635805 -27.721639 -56.818866 6.300000 14.712900 46.174100 58.925279 74.341093 -45.838472 -15.725866 -12.804941 89.462089 -6.822265 5.234552 -80.625067 -0.216400 2.994400 -8.263200 12.155868 -7.360289 105.391548 -10.060807 -3.032986 -45.486496 15.948922 -13.583875 35.096507 1.058200 -4.263800 7.191700 -88.000374 -9.417399 -41.668688 -111.403115 -89.002832 169.143483 4.955269 24.583222 -9.819922 -7.125000 0.000000 0.000000 109.596290 50.256567 3.526051 -23.427779 78.066729 0.307856 -10.822598 7.707421 -10.308942 7.125000 0.000000 0.000000 
23.481957 10.594303 1.372569 138.344607 83.300598 172.802849 -9.449659 -72.463059 -123.848614 17.277367 2.734868 114.803116 -5.641575 -27.955518 -56.887629 6.311500 14.723600 46.219500 59.435630 74.151003 -45.372013 -15.726519 -12.717400 89.282585 -6.798494 4.998277 -80.759570 -0.227600 3.070900 -8.476100 13.950885 -8.504305 105.031921 -10.422225 -3.372368 -45.168689 14.189352 -13.356946 35.867312 0.920300 -4.355800 7.272700 -88.455655 -8.726984 -41.988497 68.581476 -89.859110 -10.604488 5.134290 24.570766 -9.367979 -7.125000 0.000000 0.000000 109.657061 50.616003 5.232144 -24.384728 78.735937 -0.148170 -10.629244 7.511255 -11.231011 7.125000 0.000000 0.000000 
23.481613 10.604009 1.378145 138.140110 83.021155 172.565116 -10.453050 -72.701344 -122.821365 17.236249 2.911529 114.519533 -5.732562 -28.258333 -56.825797 6.310700 14.722800 46.216100 59.550139 74.082018 -45.242039 -15.425633 -12.563232 89.179856 -6.675898 5.887616 -80.889600 -0.156500 2.548900 -7.025100 15.219543 -9.193823 104.678994 -10.736266 -3.574818 -44.970253 13.277844 -13.382754 37.442710 0.821200 -4.415800 7.435300 -88.840207 -8.028317 -42.456800 68.485695 -88.787537 -10.354683 5.347570 24.568412 -8.828574 -7.125000 0.000000 0.000000 109.846279 50.807765 6.944081 -25.299350 79.303303 -0.504990 -10.327725 7.447836 -11.817471 7.125000 0.000000 0.000000 
23.485950 10.616056 1.384685 137.820167 82.844456 172.171841 -11.358435 -72.825592 -121.890647 17.195775 3.087453 114.273064 -5.873889 -28.598462 -56.711182 6.250600 14.666900 45.979400 59.876047 73.988669 -44.902949 -15.144278 -12.442859 89.050273 -6.546293 6.759736 -80.979863 -0.111500 2.152800 -5.928000 16.339895 -9.794187 104.303302 -11.201701 -3.801190 -44.812129 14.228492 -13.865616 38.578612 0.875300 -4.457300 7.541800 -89.157182 -7.287773 -43.096111 68.482931 -87.830284 -10.165999 5.596737 24.568718 -8.340853 -7.125000 0.000000 0.000000 110.053769 50.947946 8.699021 -25.887788 79.752629 -0.981876 -10.108156 7.337657 -12.430276 7.125000 0.000000 0.000000 
23.494555 10.621907 1.393152 137.977032 82.632271 172.122093 -12.057160 -72.891010 -121.084728 17.155102 3.242747 114.110187 -6.023984 -28.939762 -56.605190 6.227800 14.645600 45.889500 60.847052 73.737380 -43.990050 -15.099774 -12.426194 88.844383 -6.497371 6.809173 -81.073328 -0.112000 2.157800 -5.942000 17.668989 -10.571628 103.941152 -11.761116 -4.078888 -44.478798 15.422950 -14.270235 38.153011 0.972100 -4.509600 7.507600 -89.495695 -6.590681 -43.802648 68.524540 -86.959859 -10.046994 5.797770 24.553907 -7.974005 -7.125000 0.000000 0.000000 110.227584 51.135400 10.454289 -26.581980 80.282424 -1.612980 -9.938423 7.104161 -13.043684 7.125000 0.000000 0.000000 
23.502334 10.626794 1.399623 138.549269 82.430893 172.359389 -12.721628 -72.949478 -120.237129 17.143340 3.389848 113.992259 -6.090484 -29.105698 -56.559358 6.231900 14.649400 45.905600 62.331822 73.335565 -42.629222 -15.085212 -12.439334 88.577855 -6.460408 6.755623 -81.196453 -0.108600 2.125300 -5.852200 19.188254 -11.515986 103.524602 -12.789404 -4.522907 -43.796123 19.340924 -15.151060 35.477682 1.319000 -4.585100 7.293700 -89.798961 -6.035797 -44.374875 68.564417 -86.028142 -9.931100 5.855817 24.607075 -7.807686 -7.125000 0.000000 0.000000 110.451938 51.308217 12.030575 -27.506558 80.893555 -2.250430 -9.777867 6.830677 -13.559514 7.125000 0.000000 0.000000 
23.496895 10.629686 1.412771 139.202040 81.929790 173.234525 -12.729104 -73.180907 -120.279764 17.113035 3.389714 113.821059 -6.187102 -29.301294 -56.413328 6.238000 14.655100 45.929600 61.729643 73.459107 -43.299176 -15.014438 -12.327904 88.507823 -6.446060 6.881042 -81.223730 -0.091700 1.953200 -5.376200 21.251471 -12.765329 102.756856 -13.079595 -4.753576 -43.679291 15.679896 -14.632537 38.195189 1.020900 -4.672400 7.493000 -90.173223 -5.204721 -44.969040 68.586142 -85.209472 -9.815009 5.780221 24.692321 -7.782362 -7.125000 0.000000 0.000000 110.564017 51.423245 13.516701 -28.103492 81.294551 -2.758567 -9.607103 6.647615 -13.505121 7.125000 0.000000 0.000000 
